# xmcd
#
# Track frame offsets:
#   150
#   11270
#   25069
#   36466
#   50886
#   64406
#   78228
#   89578
#   101580
#   113832
#   126402
#   140146
#   154269
#   165071
#   177792
#   188636
#   201419
#   215496
#
# Disc length: 2988 seconds
#
# Revision: 0
# Processed by: cddbd v1.5.2PL0 Copyright (c) Steve Scherf et al.
# Submitted via: uFREEDB 1.6.2
#
DISCID=fe0baa12
DTITLE=DEAN MARTIN - THIS IS GOLD 1
DYEAR=2005
DGENRE=Blues
TTITLE0=Be honest with me
TTITLE1=Bye bye blackbird
TTITLE2=Happy feet
TTITLE3=I'mgonna paper all my walls with all your love letters
TTITLE4=In the cool cool of the evening
TTITLE5=Muskrat ramble
TTITLE6=Pretty as a picture
TTITLE7=Rain
TTITLE8=Sway
TTITLE9=Under the bridge of Paris
TTITLE10=When you're smiling
TTITLE11=How do you speak to an angel
TTITLE12=Tonda Wanda hoy
TTITLE13=The peddler's serbnade
TTITLE14=Every street's a boulvard
TTITLE15=Love me,love me
TTITLE16=Come back to sorrento
TTITLE17=Night train to Menphis
EXTD=
EXTT0=
EXTT1=
EXTT2=
EXTT3=
EXTT4=
EXTT5=
EXTT6=
EXTT7=
EXTT8=
EXTT9=
EXTT10=
EXTT11=
EXTT12=
EXTT13=
EXTT14=
EXTT15=
EXTT16=
EXTT17=
PLAYORDER=
